<?xml version="1.0" encoding="UTF-8"?>
<!-- Generated by Pixelmator Pro 4.0 -->
<svg width="449" height="422" viewBox="0 0 449 422" xmlns="http://www.w3.org/2000/svg">
    <g id="Layer1-2">
        <path id="Path" fill="#02aef0" stroke="none" d="M 413.059998 157.600006 C 405.920013 131.329987 393.290009 106.559998 375.950012 85.579987 C 399.429993 117.920013 412.559998 157.660004 412.970001 197.62001 C 413.170013 217.309998 410.339996 237.01001 404.790009 255.900009 C 399.640015 273.419983 392.309998 294.380005 380.480011 308.280029 C 378.529999 310.570007 375.98999 312.340027 373.100006 313.159973 C 359.320007 317.049988 352.019989 301.380005 361.209991 291.27002 C 364.309998 287.869995 368.040009 284.880005 370.059998 280.73999 C 372.089996 276.599976 371.679993 270.72998 367.679993 268.429993 C 361.359985 264.790009 353.220001 272.909973 346.519989 270.030029 C 341.049988 267.690002 340.829987 259.75 343.519989 254.449997 C 346.230011 249.169998 350.859985 244.87001 352.670013 239.220001 C 354.459991 233.650009 353.079987 227.190002 349.190002 222.839996 C 345.279999 218.490005 339.019989 216.419998 333.299988 217.600006 C 325.959991 219.089996 320.070007 226.130005 320.140015 233.610001 C 320.170013 237.960007 321.980011 242.070007 323.059998 246.270004 C 324.140015 250.490005 324.350006 255.380005 321.630005 258.76001 C 317.709991 263.660004 309.670013 262.799988 304.549988 259.190002 C 299.410004 255.559998 296.040009 249.979996 291.589996 245.550003 C 287.139984 241.12001 280.5 237.720001 274.690002 240.080002 C 269.419983 242.229996 266.809998 248.680008 267.809998 254.270004 C 268.799988 259.869995 272.679993 264.580017 277.199982 268.02002 C 281.720001 271.460022 286.919983 273.880005 291.850006 276.720032 C 299.130005 280.900024 305.859985 286.049988 311.809998 291.98999 C 316 296.169983 319.940002 301.030029 320.980011 306.849976 C 322 312.690002 319.100006 319.559998 313.399994 321.169983 C 306.600006 323.099976 300.269989 317.159973 295.949982 311.549988 C 291.630005 305.940002 286.399994 299.450012 279.329987 299.809998 C 272.48999 300.140015 267.539978 307.630005 268.209991 314.440002 C 268.880005 321.27002 273.820007 327.030029 279.600006 330.72998 C 285.369995 334.429993 292.009979 336.47998 298.369995 339.030029 C 304.730011 341.590027 311.089996 344.879974 315.279999 350.309998 C 315.320007 350.369995 315.369995 350.419983 315.410004 350.47998 C 321.640015 358.709991 318.869995 370.709991 309.790009 375.619995 C 281.009979 391.190002 248.220001 399.23999 215.419998 399.119995 C 208.199997 399.089996 201.080002 397.349976 194.630005 394.099976 L 194.520004 394.049988 C 184.190002 388.849976 174.520004 380.179993 174.179993 367.98999 C 173.960007 360.069977 177.990005 352.47998 184.669998 348.209991 C 194.960007 341.619995 206.960007 345.48999 218.380005 344.970001 C 223.080002 344.73999 228 343.640015 231.429993 340.409973 C 234.839996 337.179993 236.119995 331.359985 233.169998 327.690002 C 231.399994 325.470032 228.429993 324.320007 226.979996 321.849976 C 224.880005 318.289978 226.979996 313.619995 230.009995 310.799988 C 233.029999 307.97998 236.919998 306.200012 239.770004 303.190002 C 245.690002 296.970032 245.25 285.849976 238.880005 280.099976 C 232.490005 274.359985 221.389999 275.109985 215.820007 281.640015 C 211.289993 286.97998 210.710007 294.52002 210.369995 301.5 C 210.029999 308.5 209.529999 316.02002 205.100006 321.429993 C 200.669998 326.840027 190.759995 328.099976 187.25 322.049988 C 185.610001 319.200012 185.820007 315.700012 185.490005 312.429993 C 185.160004 309.159973 183.830002 305.470032 180.720001 304.409973 C 176.869995 303.109985 172.940002 306.820007 171.839996 310.72998 C 170.729996 314.650024 171.339996 318.859985 170.610001 322.869995 C 169.860001 326.880005 166.87999 331.099976 162.819992 330.890015 C 158.910004 330.679993 156.360001 326.400024 156.229996 322.48999 C 156.089996 318.580017 157.619995 314.830017 158.330002 310.98999 C 159.039993 307.140015 158.699997 302.630005 155.699997 300.109985 C 151.789993 296.820007 145.440002 298.919983 142.199997 302.890015 C 138.970001 306.859985 137.839996 312.070007 136.110001 316.890015 C 134.98999 320 132.869995 323.109985 130.12999 326.119995 C 111.120003 346.970001 77.720001 345.220001 60.099998 323.169983 C 54.169998 315.75 48.75 307.890015 43.919998 299.640015 C 55.91 324.140015 73.509995 346.049988 94.889999 363.449982 C 105.589996 372.139984 117.169998 379.819977 129.5 386.119995 C 141.809998 392.459991 154.839996 397.419983 168.229996 401.089996 C 171.559998 402.099976 174.970001 402.75 178.350006 403.569977 C 181.740005 404.349976 185.179993 404.869995 188.589996 405.529999 C 192.029999 406.049988 195.479996 406.47998 198.929993 406.899994 C 202.399994 407.159973 205.860001 407.549988 209.339996 407.690002 C 223.240005 408.470001 237.229996 407.699982 251.009995 405.569977 C 278.539978 401.22998 305.190002 391.059998 328.660004 375.940002 C 352.070007 360.720001 372.309998 340.619995 387.5 317.22998 C 411.820007 280.200012 423.109985 234.720001 419.070007 190.610001 C 418.049988 179.460007 416.040009 168.400009 413.109985 157.589996 Z"/>
        <path id="path1" fill="#087bb0" stroke="none" d="M 183.660004 144.649994 C 171.020004 140.559998 156.889999 136.01001 148.930008 133.589996 C 137.26001 130.029999 133.720001 149.540009 132.639999 161.649994 C 128.839996 163.25 124.919998 164.919983 120.849998 166.680008 C 109.529999 171.580002 93.440002 179.029999 80.68 175.550003 C 70.739998 172.830002 71.540001 162.699982 74.940002 154.929993 C 82.040001 138.699982 98.639999 129.720001 114.330002 123.570007 C 132.800003 116.350006 152.559998 112.029999 171.300003 106.369995 C 174.869995 105.290009 203.820007 98.790009 203.600006 93.480011 C 203.360001 88.079987 121.07 85.040009 112.059998 84.609985 C 103.07 84.190002 145.839996 30.940002 145.839996 30.940002 C -29.949997 123.329987 66.290001 239.910004 66.290001 239.910004 C 93.18 215.699997 89.550003 212.660004 89.240005 212.460007 C 119.269997 229.37001 119.269997 266.27002 119.269997 266.27002 C 142.710007 234.550003 124.339996 184.180008 124.339996 184.180008 C 162.059998 208.740005 156.410004 257.830017 156.410004 257.830017 C 180.419998 232.910004 178.880005 171.790009 178.880005 171.790009 C 210.190002 207.199997 194.149994 256.339996 194.149994 256.339996 C 264.440002 241.339996 273.830017 195.680008 273.830017 195.680008 C 241.25 151.209991 218.289993 138.350006 183.669998 144.639984 Z M 240.919998 205.559998 C 236.399994 205.559998 232.720001 201.889999 232.720001 197.37001 C 232.720001 192.850006 236.399994 189.169998 240.919998 189.169998 C 245.440002 189.169998 249.119995 192.839996 249.119995 197.37001 C 249.119995 201.900009 245.449997 205.559998 240.919998 205.559998 Z"/>
        <path id="path2" fill="#02aef0" stroke="none" d="M 372.790009 225.669998 C 372.109985 229.240005 375.179993 232.309998 378.75 231.630005 C 380.730011 231.25 382.350006 229.630005 382.730011 227.650009 C 383.410004 224.080002 380.339996 221.01001 376.769989 221.690002 C 374.790009 222.070007 373.170013 223.690002 372.790009 225.669998 Z"/>
        <path id="path3" fill="#02aef0" stroke="none" d="M 236.580002 372.329987 C 233.139999 371.679993 230.179993 374.639984 230.830002 378.079987 C 231.190002 379.98999 232.759995 381.549988 234.669998 381.909973 C 238.110001 382.559998 241.070007 379.599976 240.419998 376.159973 C 240.059998 374.25 238.5 372.690002 236.580002 372.319977 Z"/>
        <path id="path4" fill="#087bb0" stroke="none" d="M 265.460022 360.279999 C 273.100006 361.72998 279.679993 355.149994 278.230011 347.509979 C 277.420013 343.23999 273.980011 339.789978 269.710022 338.97998 C 262.059998 337.530029 255.479996 344.109985 256.940002 351.759979 C 257.75 356.029999 261.200012 359.470001 265.470001 360.279999 Z"/>
        <path id="path5" fill="#02aef0" stroke="none" d="M 227.539993 109.029999 C 226.199997 115.079987 231.470001 120.350006 237.520004 119.01001 C 240.570007 118.329987 243.029999 115.869995 243.699997 112.829987 C 245.039993 106.779999 239.770004 101.51001 233.720001 102.850006 C 230.669998 103.529999 228.210007 105.98999 227.539993 109.040009 Z"/>
        <path id="path6" fill="#02aef0" stroke="none" d="M 225.350006 58.720001 C 241.179993 60.290009 254.369995 47.089996 252.800003 31.269989 C 251.639999 19.559998 242.169998 10.089996 230.449997 8.929993 C 214.619995 7.359985 201.440002 20.559998 203 36.380005 C 204.160004 48.089996 213.630005 57.559998 225.339996 58.720001 Z"/>
        <path id="path7" fill="#087bb0" stroke="none" d="M 288.880005 80.380005 C 297.299988 81.76001 304.470001 74.589996 303.089996 66.170013 C 302.25 61.070007 298.140015 56.959991 293.050018 56.130005 C 284.630005 54.75 277.460022 61.920013 278.839996 70.339996 C 279.679993 75.440002 283.790009 79.549988 288.880005 80.380005 Z"/>
        <path id="path8" fill="#02aef0" stroke="none" d="M 92.470001 298.869995 C 91.910004 302.539978 95.020004 305.640015 98.690002 305.080017 C 100.970001 304.72998 102.840004 302.859985 103.190002 300.580017 C 103.75 296.909973 100.639999 293.799988 96.970001 294.359985 C 94.690002 294.710022 92.82 296.580017 92.470001 298.859985 Z"/>
        <path id="path9" fill="#087bb0" stroke="none" d="M 185.961639 271.313904 C 188.714844 274.067108 188.730682 278.515076 185.997009 281.248779 C 183.263351 283.982422 178.815353 283.966614 176.062149 281.213379 C 173.308975 278.460205 173.293137 274.012207 176.02681 271.278564 C 178.760483 268.544861 183.208466 268.56073 185.961639 271.313904 Z"/>
        <path id="path10" fill="#02aef0" stroke="none" d="M 287.440002 154.119995 C 285.899994 162.22998 292.880005 169.210007 300.98999 167.669998 C 305.519989 166.809998 309.179993 163.160004 310.040009 158.630005 C 311.579987 150.519989 304.600006 143.540009 296.48999 145.070007 C 291.959991 145.929993 288.299988 149.579987 287.440002 154.119995 Z"/>
        <path id="path11" fill="#02aef0" stroke="none" d="M 359.670013 168.930008 C 373.070007 170.62001 384.350006 159.350006 382.660004 145.940002 C 381.51001 136.809998 374.130005 129.429993 365 128.279999 C 351.589996 126.589996 340.309998 137.859985 342.01001 151.269989 C 343.160004 160.400024 350.540009 167.779999 359.670013 168.930008 Z"/>
    </g>
</svg>
