<?xml version="1.0" encoding="UTF-8"?>
<svg id="Layer_2" data-name="Layer 2" xmlns="http://www.w3.org/2000/svg" viewBox="0 0 1360.44 399.2">
  <defs>
    <style>
      .cls-1 {
        fill: #087bb0;
      }

      .cls-1, .cls-2 {
        stroke-width: 0px;
      }

      .cls-2 {
        fill: #02aef0;
      }
    </style>
  </defs>
  <g id="Layer_1-2" data-name="Layer 1">
    <g>
      <path class="cls-1" d="m541.47,233.56l-30.98-81.47-30.98,81.47-39.46-102.97h17.82l21.64,58.42,21.78-58.42h18.39l21.78,58.42,21.78-58.42h17.82l-39.6,102.97Z"/>
      <path class="cls-1" d="m620.4,147.14v24.75h41.16v16.41h-41.16v24.75h49.51v16.55h-66.05v-99.01h66.05v16.55h-49.51Z"/>
      <path class="cls-1" d="m694.8,202.16h16.55c.28,8.2,7.07,12.31,14.43,12.31s14.43-4.95,14.43-12.73c0-8.35-7.78-13.44-14.43-13.72-.85,0-7.64,0-14.85-3.25-10.33-4.81-16.12-13.58-16.12-25.32,0-18.81,14.99-30.27,30.98-30.27,17.11,0,30.27,11.6,30.55,28.43h-16.41c-.28-8.2-6.65-11.88-14.14-11.88s-14.43,4.53-14.43,13.72c0,8.2,7.07,12.59,14.43,12.59.71,0,7.64,0,14.71,3.25,10.47,4.81,16.12,14.71,16.12,26.45,0,18.95-14.85,29.28-30.83,29.28-17.11-.42-30.69-10.33-30.98-28.85Z"/>
      <path class="cls-1" d="m836.1,145.73h-20.79v83.88h-16.41v-83.88h-20.79v-15.13h57.99v15.13Z"/>
      <path class="cls-1" d="m990.84,204.85l11.6,11.74c-8.91,8.91-21.22,14.43-34.94,14.43-27.3,0-49.65-19.8-49.65-50.92s20.65-50.92,49.65-50.92c13.72,0,26.03,5.52,34.94,14.57l-11.6,11.6c-5.94-5.94-14.29-9.62-23.34-9.62-20.37,0-32.81,14.43-32.81,34.37,0,21.22,14.57,34.37,32.81,34.37,9.05,0,17.4-3.68,23.34-9.62Z"/>
      <path class="cls-1" d="m1027.62,165.95c0-20.23,16.55-36.78,36.78-36.78s36.78,16.55,36.78,36.78-16.55,36.78-36.78,36.78-36.78-16.55-36.78-36.78Zm69.02,63.65h-65.35v-16.41h65.35v16.41Zm-52.62-63.65c0,11.32,9.05,20.37,20.37,20.37s20.37-9.05,20.37-20.37-9.05-20.37-20.37-20.37-20.37,9.05-20.37,20.37Z"/>
      <polygon class="cls-1" points="1160.58 127.76 1121.11 229.6 1138.94 229.6 1160.58 169.49 1177.98 218.15 1182.36 229.6 1200.18 229.6 1160.58 127.76"/>
      <path class="cls-1" d="m1219.14,202.16h16.55c.28,8.2,7.07,12.31,14.43,12.31s14.43-4.95,14.43-12.73c0-8.35-7.78-13.44-14.43-13.72-.85,0-7.64,0-14.85-3.25-10.33-4.81-16.12-13.58-16.12-25.32,0-18.81,14.99-30.27,30.98-30.27,17.11,0,30.27,11.6,30.55,28.43h-16.41c-.28-8.2-6.65-11.88-14.14-11.88s-14.43,4.53-14.43,13.72c0,8.2,7.07,12.59,14.43,12.59.71,0,7.64,0,14.71,3.25,10.47,4.81,16.12,14.71,16.12,26.45,0,18.95-14.85,29.28-30.83,29.28-17.11-.42-30.69-10.33-30.98-28.85Z"/>
      <path class="cls-1" d="m1360.44,145.73h-20.79v83.88h-16.41v-83.88h-20.79v-15.13h57.99v15.13Z"/>
    </g>
    <g>
      <path class="cls-2" d="m533.32,311.36l14.61-32.27h4.56l14.66,32.27h-4.84l-13.04-29.68h1.84l-13.04,29.68h-4.75Zm6.22-8.07l1.24-3.69h18.16l1.34,3.69h-20.74Z"/>
      <path class="cls-2" d="m599.88,311.73c-2.46,0-4.74-.41-6.84-1.24-2.11-.83-3.93-1.99-5.46-3.48-1.54-1.49-2.74-3.23-3.6-5.23-.86-2-1.29-4.18-1.29-6.55s.43-4.55,1.29-6.55c.86-2,2.06-3.74,3.6-5.23,1.54-1.49,3.35-2.65,5.44-3.48,2.09-.83,4.38-1.24,6.87-1.24s4.72.41,6.8,1.22c2.07.81,3.89,1.97,5.44,3.46,1.55,1.49,2.75,3.23,3.6,5.23.85,2,1.27,4.19,1.27,6.59s-.42,4.59-1.27,6.59c-.85,2-2.04,3.74-3.6,5.23-1.55,1.49-3.37,2.64-5.44,3.46-2.07.81-4.34,1.22-6.8,1.22Zm0-4.1c1.78,0,3.43-.31,4.96-.92,1.52-.61,2.84-1.49,3.96-2.63,1.12-1.14,2-2.46,2.63-3.96.63-1.51.94-3.13.94-4.89s-.32-3.43-.94-4.93c-.63-1.51-1.51-2.82-2.63-3.94-1.12-1.12-2.44-1.99-3.96-2.6-1.52-.61-3.17-.92-4.96-.92s-3.48.31-5,.92c-1.52.62-2.85,1.48-3.99,2.6-1.14,1.12-2.02,2.44-2.65,3.94-.63,1.51-.94,3.15-.94,4.93s.31,3.38.94,4.89c.63,1.51,1.51,2.83,2.65,3.96,1.14,1.14,2.47,2.01,3.99,2.63,1.52.61,3.19.92,5,.92Zm10.56,10.46c-1.08,0-2.11-.13-3.09-.39-.98-.26-1.97-.68-2.95-1.24-.98-.57-2-1.31-3.04-2.21-1.04-.91-2.18-2.02-3.41-3.34l4.93-1.29c.92,1.14,1.8,2.07,2.65,2.79.84.72,1.68,1.24,2.51,1.57s1.64.48,2.44.48c2.3,0,4.27-.92,5.9-2.77l2.17,2.63c-2.09,2.52-4.79,3.78-8.11,3.78Z"/>
      <path class="cls-2" d="m651.23,311.73c-4.24,0-7.57-1.21-10-3.64-2.43-2.43-3.64-5.98-3.64-10.65v-18.35h4.61v18.16c0,3.6.79,6.22,2.37,7.88,1.58,1.66,3.82,2.49,6.71,2.49s5.17-.83,6.75-2.49c1.58-1.66,2.37-4.29,2.37-7.88v-18.16h4.47v18.35c0,4.67-1.21,8.22-3.62,10.65-2.41,2.43-5.75,3.64-10.03,3.64Z"/>
      <path class="cls-2" d="m682.57,311.36l14.61-32.27h4.56l14.66,32.27h-4.84l-13.04-29.68h1.84l-13.04,29.68h-4.75Zm6.22-8.07l1.24-3.69h18.16l1.34,3.69h-20.74Z"/>
      <path class="cls-2" d="m735.02,311.36v-32.27h12.58c2.83,0,5.24.45,7.24,1.34,2,.89,3.53,2.18,4.61,3.87,1.08,1.69,1.61,3.7,1.61,6.04s-.54,4.34-1.61,6.02c-1.08,1.67-2.61,2.96-4.61,3.85-2,.89-4.41,1.34-7.24,1.34h-10.05l2.07-2.12v11.94h-4.61Zm4.61-11.48l-2.07-2.26h9.91c2.95,0,5.19-.64,6.71-1.91,1.52-1.27,2.28-3.07,2.28-5.37s-.76-4.09-2.28-5.35-3.76-1.89-6.71-1.89h-9.91l2.07-2.3v19.08Zm16.96,11.48l-8.2-11.71h4.93l8.3,11.71h-5.02Z"/>
      <path class="cls-2" d="m782.36,311.36v-32.27h4.61v32.27h-4.61Z"/>
      <path class="cls-2" d="m823.85,311.73c-4.24,0-7.57-1.21-10-3.64-2.43-2.43-3.64-5.98-3.64-10.65v-18.35h4.61v18.16c0,3.6.79,6.22,2.37,7.88,1.58,1.66,3.82,2.49,6.71,2.49s5.17-.83,6.75-2.49c1.58-1.66,2.37-4.29,2.37-7.88v-18.16h4.47v18.35c0,4.67-1.21,8.22-3.62,10.65-2.41,2.43-5.75,3.64-10.03,3.64Z"/>
      <path class="cls-2" d="m860.77,311.36v-32.27h3.78l14.47,24.38h-2.03l14.29-24.38h3.78l.05,32.27h-4.42l-.05-25.31h1.06l-12.72,21.39h-2.12l-12.81-21.39h1.15v25.31h-4.43Z"/>
      <path class="cls-2" d="m954.25,311.73c-2.46,0-4.81-.38-7.05-1.13-2.24-.75-4.01-1.73-5.3-2.93l1.71-3.6c1.23,1.08,2.8,1.97,4.7,2.67,1.9.71,3.89,1.06,5.95,1.06,1.87,0,3.4-.22,4.56-.65,1.17-.43,2.03-1.02,2.58-1.78.55-.75.83-1.6.83-2.56,0-1.11-.36-2-1.08-2.67-.72-.68-1.66-1.22-2.81-1.64s-2.42-.78-3.8-1.08c-1.38-.31-2.77-.67-4.17-1.08-1.4-.41-2.67-.95-3.83-1.59-1.15-.65-2.08-1.51-2.79-2.6-.71-1.09-1.06-2.5-1.06-4.22s.44-3.19,1.31-4.59c.88-1.4,2.23-2.52,4.06-3.36,1.83-.84,4.16-1.27,6.98-1.27,1.87,0,3.73.25,5.58.74,1.84.49,3.44,1.2,4.79,2.12l-1.52,3.69c-1.38-.92-2.84-1.59-4.38-2-1.54-.41-3.03-.62-4.47-.62-1.81,0-3.3.23-4.47.69s-2.02,1.08-2.56,1.84c-.54.77-.81,1.63-.81,2.58,0,1.14.36,2.04,1.08,2.72.72.68,1.66,1.21,2.81,1.61,1.15.4,2.42.76,3.8,1.08s2.77.68,4.17,1.08c1.4.4,2.67.92,3.83,1.57,1.15.65,2.08,1.51,2.79,2.58.71,1.08,1.06,2.46,1.06,4.15s-.45,3.14-1.34,4.54c-.89,1.4-2.27,2.52-4.13,3.37-1.86.85-4.2,1.27-7.03,1.27Z"/>
      <path class="cls-2" d="m991.91,307.35h18.81v4.01h-23.42v-32.27h22.77v4.01h-18.16v24.25Zm-.41-14.34h16.59v3.92h-16.59v-3.92Z"/>
      <path class="cls-2" d="m1032.01,311.36v-32.27h12.58c2.83,0,5.24.45,7.24,1.34,2,.89,3.53,2.18,4.61,3.87,1.08,1.69,1.61,3.7,1.61,6.04s-.54,4.34-1.61,6.02c-1.08,1.67-2.61,2.96-4.61,3.85-2,.89-4.41,1.34-7.24,1.34h-10.05l2.07-2.12v11.94h-4.61Zm4.61-11.48l-2.07-2.26h9.91c2.95,0,5.19-.64,6.71-1.91,1.52-1.27,2.28-3.07,2.28-5.37s-.76-4.09-2.28-5.35c-1.52-1.26-3.76-1.89-6.71-1.89h-9.91l2.07-2.3v19.08Zm16.96,11.48l-8.2-11.71h4.93l8.3,11.71h-5.02Z"/>
      <path class="cls-2" d="m1088.66,311.36l-14.2-32.27h4.98l13.04,29.78h-2.86l13.14-29.78h4.61l-14.15,32.27h-4.56Z"/>
      <path class="cls-2" d="m1125.3,311.36v-32.27h4.61v32.27h-4.61Z"/>
      <path class="cls-2" d="m1167.85,311.73c-2.46,0-4.72-.41-6.8-1.22-2.07-.81-3.87-1.97-5.39-3.46-1.52-1.49-2.71-3.23-3.57-5.23-.86-2-1.29-4.19-1.29-6.59s.43-4.59,1.29-6.59c.86-2,2.06-3.74,3.6-5.23,1.54-1.49,3.34-2.64,5.42-3.46,2.07-.81,4.34-1.22,6.8-1.22s4.79.42,6.89,1.27c2.1.85,3.9,2.1,5.37,3.76l-3,2.9c-1.23-1.29-2.61-2.25-4.15-2.88-1.54-.63-3.18-.94-4.93-.94s-3.5.31-5.05.92c-1.55.62-2.9,1.48-4.03,2.58-1.14,1.11-2.02,2.42-2.65,3.94-.63,1.52-.94,3.17-.94,4.95s.31,3.43.94,4.96c.63,1.52,1.51,2.83,2.65,3.94,1.14,1.11,2.48,1.97,4.03,2.58,1.55.61,3.23.92,5.05.92s3.4-.32,4.93-.95c1.54-.63,2.92-1.61,4.15-2.93l3,2.9c-1.47,1.66-3.27,2.92-5.37,3.78-2.11.86-4.42,1.29-6.94,1.29Z"/>
      <path class="cls-2" d="m1205.18,307.35h18.81v4.01h-23.42v-32.27h22.77v4.01h-18.16v24.25Zm-.41-14.34h16.59v3.92h-16.59v-3.92Z"/>
      <path class="cls-2" d="m1254.69,311.73c-2.46,0-4.81-.38-7.05-1.13-2.24-.75-4.01-1.73-5.3-2.93l1.71-3.6c1.23,1.08,2.8,1.97,4.7,2.67,1.9.71,3.89,1.06,5.95,1.06,1.87,0,3.4-.22,4.56-.65,1.17-.43,2.03-1.02,2.58-1.78.55-.75.83-1.6.83-2.56,0-1.11-.36-2-1.08-2.67-.72-.68-1.66-1.22-2.81-1.64s-2.42-.78-3.8-1.08c-1.38-.31-2.77-.67-4.17-1.08-1.4-.41-2.67-.95-3.83-1.59-1.15-.65-2.08-1.51-2.79-2.6-.71-1.09-1.06-2.5-1.06-4.22s.44-3.19,1.31-4.59c.88-1.4,2.23-2.52,4.06-3.36,1.83-.84,4.16-1.27,6.98-1.27,1.87,0,3.73.25,5.58.74,1.84.49,3.44,1.2,4.79,2.12l-1.52,3.69c-1.38-.92-2.84-1.59-4.38-2-1.54-.41-3.03-.62-4.47-.62-1.81,0-3.3.23-4.47.69s-2.02,1.08-2.56,1.84c-.54.77-.81,1.63-.81,2.58,0,1.14.36,2.04,1.08,2.72.72.68,1.66,1.21,2.81,1.61,1.15.4,2.42.76,3.8,1.08s2.77.68,4.17,1.08c1.4.4,2.67.92,3.83,1.57s2.08,1.51,2.79,2.58c.71,1.08,1.06,2.46,1.06,4.15s-.45,3.14-1.34,4.54c-.89,1.4-2.27,2.52-4.13,3.37s-4.2,1.27-7.03,1.27Z"/>
    </g>
    <path class="cls-2" d="m373.06,148.8c-7.14-26.27-19.77-51.04-37.11-72.02,23.48,32.34,36.61,72.08,37.02,112.04.2,19.69-2.63,39.39-8.18,58.28-5.15,17.52-12.48,38.48-24.31,52.38-1.95,2.29-4.49,4.06-7.38,4.88-13.78,3.89-21.08-11.78-11.89-21.89,3.1-3.4,6.83-6.39,8.85-10.53,2.03-4.14,1.62-10.01-2.38-12.31-6.32-3.64-14.46,4.48-21.16,1.6-5.47-2.34-5.69-10.28-3-15.58,2.71-5.28,7.34-9.58,9.15-15.23,1.79-5.57.41-12.03-3.48-16.38-3.91-4.35-10.17-6.42-15.89-5.24-7.34,1.49-13.23,8.53-13.16,16.01.03,4.35,1.84,8.46,2.92,12.66,1.08,4.22,1.29,9.11-1.43,12.49-3.92,4.9-11.96,4.04-17.08.43-5.14-3.63-8.51-9.21-12.96-13.64-4.45-4.43-11.09-7.83-16.9-5.47-5.27,2.15-7.88,8.6-6.88,14.19.99,5.6,4.87,10.31,9.39,13.75,4.52,3.44,9.72,5.86,14.65,8.7,7.28,4.18,14.01,9.33,19.96,15.27,4.19,4.18,8.13,9.04,9.17,14.86,1.02,5.84-1.88,12.71-7.58,14.32-6.8,1.93-13.13-4.01-17.45-9.62-4.32-5.61-9.55-12.1-16.62-11.74-6.84.33-11.79,7.82-11.12,14.63.67,6.83,5.61,12.59,11.39,16.29,5.77,3.7,12.41,5.75,18.77,8.3,6.36,2.56,12.72,5.85,16.91,11.28.04.06.09.11.13.17,6.23,8.23,3.46,20.23-5.62,25.14-28.78,15.57-61.57,23.62-94.37,23.5-7.22-.03-14.34-1.77-20.79-5.02l-.11-.05c-10.33-5.2-20-13.87-20.34-26.06-.22-7.92,3.81-15.51,10.49-19.78,10.29-6.59,22.29-2.72,33.71-3.24,4.7-.23,9.62-1.33,13.05-4.56,3.41-3.23,4.69-9.05,1.74-12.72-1.77-2.22-4.74-3.37-6.19-5.84-2.1-3.56,0-8.23,3.03-11.05,3.02-2.82,6.91-4.6,9.76-7.61,5.92-6.22,5.48-17.34-.89-23.09-6.39-5.74-17.49-4.99-23.06,1.54-4.53,5.34-5.11,12.88-5.45,19.86-.34,7-.84,14.52-5.27,19.93-4.43,5.41-14.34,6.67-17.85.62-1.64-2.85-1.43-6.35-1.76-9.62-.33-3.27-1.66-6.96-4.77-8.02-3.85-1.3-7.78,2.41-8.88,6.32-1.11,3.92-.5,8.13-1.23,12.14-.75,4.01-3.73,8.23-7.79,8.02-3.91-.21-6.46-4.49-6.59-8.4-.14-3.91,1.39-7.66,2.1-11.5.71-3.85.37-8.36-2.63-10.88-3.91-3.29-10.26-1.19-13.5,2.78-3.23,3.97-4.36,9.18-6.09,14-1.12,3.11-3.24,6.22-5.98,9.23-19.01,20.85-52.41,19.1-70.03-2.95-5.93-7.42-11.35-15.28-16.18-23.53,11.99,24.5,29.59,46.41,50.97,63.81,10.7,8.69,22.28,16.37,34.61,22.67,12.31,6.34,25.34,11.3,38.73,14.97,3.33,1.01,6.74,1.66,10.12,2.48,3.39.78,6.83,1.3,10.24,1.96,3.44.52,6.89.95,10.34,1.37,3.47.26,6.93.65,10.41.79,13.9.78,27.89.01,41.67-2.12,27.53-4.34,54.18-14.51,77.65-29.63,23.41-15.22,43.65-35.32,58.84-58.71,24.32-37.03,35.61-82.51,31.57-126.62-1.02-11.15-3.03-22.21-5.96-33.02Z"/>
    <path class="cls-1" d="m143.66,135.85c-12.64-4.09-26.77-8.64-34.73-11.06-11.67-3.56-15.21,15.95-16.29,28.06-3.8,1.6-7.72,3.27-11.79,5.03-11.32,4.9-27.41,12.35-40.17,8.87-9.94-2.72-9.14-12.85-5.74-20.62,7.1-16.23,23.7-25.21,39.39-31.36,18.47-7.22,38.23-11.54,56.97-17.2,3.57-1.08,32.52-7.58,32.3-12.89-.24-5.4-82.53-8.44-91.54-8.87-8.99-.42,33.78-53.67,33.78-53.67C-69.95,114.53,26.29,231.11,26.29,231.11c26.89-24.21,23.26-27.25,22.95-27.45,30.03,16.91,30.03,53.81,30.03,53.81,23.44-31.72,5.07-82.09,5.07-82.09,37.72,24.56,32.07,73.65,32.07,73.65,24.01-24.92,22.47-86.04,22.47-86.04,31.31,35.41,15.27,84.55,15.27,84.55,70.29-15,79.68-60.66,79.68-60.66-32.58-44.47-55.54-57.33-90.16-51.04Zm57.26,60.91c-4.52,0-8.2-3.67-8.2-8.19s3.68-8.2,8.2-8.2,8.2,3.67,8.2,8.2-3.67,8.19-8.2,8.19Z"/>
    <path class="cls-2" d="m332.79,216.87c-.68,3.57,2.39,6.64,5.96,5.96,1.98-.38,3.6-2,3.98-3.98.68-3.57-2.39-6.64-5.96-5.96-1.98.38-3.6,2-3.98,3.98Z"/>
    <path class="cls-2" d="m196.58,363.53c-3.44-.65-6.4,2.31-5.75,5.75.36,1.91,1.93,3.47,3.84,3.83,3.44.65,6.4-2.31,5.75-5.75-.36-1.91-1.92-3.47-3.84-3.84Z"/>
    <path class="cls-1" d="m225.46,351.48c7.64,1.45,14.22-5.13,12.77-12.77-.81-4.27-4.25-7.72-8.52-8.53-7.65-1.45-14.23,5.13-12.77,12.78.81,4.27,4.26,7.71,8.53,8.52Z"/>
    <path class="cls-2" d="m187.54,100.23c-1.34,6.05,3.93,11.32,9.98,9.98,3.05-.68,5.51-3.14,6.18-6.18,1.34-6.05-3.93-11.32-9.98-9.98-3.05.68-5.51,3.14-6.18,6.19Z"/>
    <path class="cls-2" d="m185.35,49.92c15.83,1.57,29.02-11.63,27.45-27.45-1.16-11.71-10.63-21.18-22.35-22.34-15.83-1.57-29.01,11.63-27.45,27.45,1.16,11.71,10.63,21.18,22.34,22.34Z"/>
    <path class="cls-1" d="m248.88,71.58c8.42,1.38,15.59-5.79,14.21-14.21-.84-5.1-4.95-9.21-10.04-10.04-8.42-1.38-15.59,5.79-14.21,14.21.84,5.1,4.95,9.21,10.04,10.04Z"/>
    <path class="cls-2" d="m52.47,290.07c-.56,3.67,2.55,6.77,6.22,6.21,2.28-.35,4.15-2.22,4.5-4.5.56-3.67-2.55-6.78-6.22-6.22-2.28.35-4.15,2.22-4.5,4.5Z"/>
    <ellipse class="cls-1" cx="141.01" cy="267.46" rx="7" ry="7.05" transform="translate(-147.82 178.05) rotate(-45)"/>
    <path class="cls-2" d="m247.44,145.32c-1.54,8.11,5.44,15.09,13.55,13.55,4.53-.86,8.19-4.51,9.05-9.04,1.54-8.11-5.44-15.09-13.55-13.56-4.53.86-8.19,4.51-9.05,9.05Z"/>
    <path class="cls-2" d="m319.67,160.13c13.4,1.69,24.68-9.58,22.99-22.99-1.15-9.13-8.53-16.51-17.66-17.66-13.41-1.69-24.69,9.58-22.99,22.99,1.15,9.13,8.53,16.51,17.66,17.66Z"/>
  </g>
</svg>