<svg
  xmlns="http://www.w3.org/2000/svg"
  viewBox="0 0 400 399.2"
  role="img"
  aria-label="West Coast Aquarium Services icon"
>
  <defs>
    <style>
      .cls-1 {
        fill: #087bb0;
      }
      .cls-2 {
        fill: #02aef0;
      }
    </style>
  </defs>
  <g>
    <path
      class="cls-2"
      d="m373.06,148.8c-7.14-26.27-19.77-51.04-37.11-72.02,23.48,32.34,36.61,72.08,37.02,112.04.2,19.69-2.63,39.39-8.18,58.28-5.15,17.52-12.48,38.48-24.31,52.38-1.95,2.29-4.49,4.06-7.38,4.88-13.78,3.89-21.08-11.78-11.89-21.89,3.1-3.4,6.83-6.39,8.85-10.53,2.03-4.14,1.62-10.01-2.38-12.31-6.32-3.64-14.46,4.48-21.16,1.6-5.47-2.34-5.69-10.28-3-15.58,2.71-5.28,7.34-9.58,9.15-15.23,1.79-5.57.41-12.03-3.48-16.38-3.91-4.35-10.17-6.42-15.89-5.24-7.34,1.49-13.23,8.53-13.16,16.01.03,4.35,1.84,8.46,2.92,12.66,1.08,4.22,1.29,9.11-1.43,12.49-3.92,4.9-11.96,4.04-17.08.43-5.14-3.63-8.51-9.21-12.96-13.64-4.45-4.43-11.09-7.83-16.9-5.47-5.27,2.15-7.88,8.6-6.88,14.19.99,5.6,4.87,10.31,9.39,13.75,4.52,3.44,9.72,5.86,14.65,8.7,7.28,4.18,14.01,9.33,19.96,15.27,4.19,4.18,8.13,9.04,9.17,14.86,1.02,5.84-1.88,12.71-7.58,14.32-6.8,1.93-13.13-4.01-17.45-9.62-4.32-5.61-9.55-12.1-16.62-11.74-6.84.33-11.79,7.82-11.12,14.63.67,6.83,5.61,12.59,11.39,16.29,5.77,3.7,12.41,5.75,18.77,8.3,6.36,2.56,12.72,5.85,16.91,11.28.04.06.09.11.13.17,6.23,8.23,3.46,20.23-5.62,25.14-28.78,15.57-61.57,23.62-94.37,23.5-7.22-.03-14.34-1.77-20.79-5.02l-.11-.05c-10.33-5.2-20-13.87-20.34-26.06-.22-7.92,3.81-15.51,10.49-19.78,10.29-6.59,22.29-2.72,33.71-3.24,4.7-.23,9.62-1.33,13.05-4.56,3.41-3.23,4.69-9.05,1.74-12.72-1.77-2.22-4.74-3.37-6.19-5.84-2.1-3.56,0-8.23,3.03-11.05,3.02-2.82,6.91-4.6,9.76-7.61,5.92-6.22,5.48-17.34-.89-23.09-6.39-5.74-17.49-4.99-23.06,1.54-4.53,5.34-5.11,12.88-5.45,19.86-.34,7-.84,14.52-5.27,19.93-4.43,5.41-14.34,6.67-17.85.62-1.64-2.85-1.43-6.35-1.76-9.62-.33-3.27-1.66-6.96-4.77-8.02-3.85-1.3-7.78,2.41-8.88,6.32-1.11,3.92-.5,8.13-1.23,12.14-.75,4.01-3.73,8.23-7.79,8.02-3.91-.21-6.46-4.49-6.59-8.4-.14-3.91,1.39-7.66,2.1-11.5.71-3.85.37-8.36-2.63-10.88-3.91-3.29-10.26-1.19-13.5,2.78-3.23,3.97-4.36,9.18-6.09,14-1.12,3.11-3.24,6.22-5.98,9.23-19.01,20.85-52.41,19.1-70.03-2.95-5.93-7.42-11.35-15.28-16.18-23.53,11.99,24.5,29.59,46.41,50.97,63.81,10.7,8.69,22.28,16.37,34.61,22.67,12.31,6.34,25.34,11.3,38.73,14.97,3.33,1.01,6.74,1.66,10.12,2.48,3.39.78,6.83,1.3,10.24,1.96,3.44.52,6.89.95,10.34,1.37,3.47.26,6.93.65,10.41.79,13.9.78,27.89.01,41.67-2.12,27.53-4.34,54.18-14.51,77.65-29.63,23.41-15.22,43.65-35.32,58.84-58.71,24.32-37.03,35.61-82.51,31.57-126.62-1.02-11.15-3.03-22.21-5.96-33.02Z"
    />
    <path
      class="cls-1"
      d="m143.66,135.85c-12.64-4.09-26.77-8.64-34.73-11.06-11.67-3.56-15.21,15.95-16.29,28.06-3.8,1.6-7.72,3.27-11.79,5.03-11.32,4.9-27.41,12.35-40.17,8.87-9.94-2.72-9.14-12.85-5.74-20.62,7.1-16.23,23.7-25.21,39.39-31.36,18.47-7.22,38.23-11.54,56.97-17.2,3.57-1.08,32.52-7.58,32.3-12.89-.24-5.4-82.53-8.44-91.54-8.87-8.99-.42,33.78-53.67,33.78-53.67C-69.95,114.53,26.29,231.11,26.29,231.11c26.89-24.21,23.26-27.25,22.95-27.45,30.03,16.91,30.03,53.81,30.03,53.81,23.44-31.72,5.07-82.09,5.07-82.09,37.72,24.56,32.07,73.65,32.07,73.65,24.01-24.92,22.47-86.04,22.47-86.04,31.31,35.41,15.27,84.55,15.27,84.55,70.29-15,79.68-60.66,79.68-60.66-32.58-44.47-55.54-57.33-90.16-51.04Zm57.26,60.91c-4.52,0-8.2-3.67-8.2-8.19s3.68-8.2,8.2-8.2,8.2,3.67,8.2,8.2-3.67,8.19-8.2,8.19Z"
    />
    <path
      class="cls-2"
      d="m332.79,216.87c-.68,3.57,2.39,6.64,5.96,5.96,1.98-.38,3.6-2,3.98-3.98.68-3.57-2.39-6.64-5.96-5.96-1.98.38-3.6,2-3.98,3.98Z"
    />
    <path
      class="cls-2"
      d="m196.58,363.53c-3.44-.65-6.4,2.31-5.75,5.75.36,1.91,1.93,3.47,3.84,3.83,3.44.65,6.4-2.31,5.75-5.75-.36-1.91-1.92-3.47-3.84-3.84Z"
    />
    <path
      class="cls-1"
      d="m225.46,351.48c7.64,1.45,14.22-5.13,12.77-12.77-.81-4.27-4.25-7.72-8.52-8.53-7.65-1.45-14.23,5.13-12.77,12.78.81,4.27,4.26,7.71,8.53,8.52Z"
    />
    <path
      class="cls-2"
      d="m187.54,100.23c-1.34,6.05,3.93,11.32,9.98,9.98,3.05-.68,5.51-3.14,6.18-6.18,1.34-6.05-3.93-11.32-9.98-9.98-3.05.68-5.51,3.14-6.18,6.19Z"
    />
    <path
      class="cls-2"
      d="m185.35,49.92c15.83,1.57,29.02-11.63,27.45-27.45-1.16-11.71-10.63-21.18-22.35-22.34-15.83-1.57-29.01,11.63-27.45,27.45,1.16,11.71,10.63,21.18,22.34,22.34Z"
    />
    <path
      class="cls-1"
      d="m248.88,71.58c8.42,1.38,15.59-5.79,14.21-14.21-.84-5.1-4.95-9.21-10.04-10.04-8.42-1.38-15.59,5.79-14.21,14.21.84,5.1,4.95,9.21,10.04,10.04Z"
    />
    <path
      class="cls-2"
      d="m52.47,290.07c-.56,3.67,2.55,6.77,6.22,6.21,2.28-.35,4.15-2.22,4.5-4.5.56-3.67-2.55-6.78-6.22-6.22-2.28.35-4.15,2.22-4.5,4.5Z"
    />
    <ellipse
      class="cls-1"
      cx="141.01"
      cy="267.46"
      rx="7"
      ry="7.05"
      transform="translate(-147.82 178.05) rotate(-45)"
    />
    <path
      class="cls-2"
      d="m247.44,145.32c-1.54,8.11,5.44,15.09,13.55,13.55,4.53-.86,8.19-4.51,9.05-9.04,1.54-8.11-5.44-15.09-13.55-13.56-4.53.86-8.19,4.51-9.05,9.05Z"
    />
    <path
      class="cls-2"
      d="m319.67,160.13c13.4,1.69,24.68-9.58,22.99-22.99-1.15-9.13-8.53-16.51-17.66-17.66-13.41-1.69-24.69,9.58-22.99,22.99,1.15,9.13,8.53,16.51,17.66,17.66Z"
    />
  </g>
</svg>
